<svg xmlns="http://www.w3.org/2000/svg" version="1.1" xmlns:xlink="http://www.w3.org/1999/xlink" xmlns:svgjs="http://svgjs.dev/svgjs" width="1500" height="1500" viewBox="0 0 1500 1500"><rect width="1500" height="1500" fill="#ffffff"></rect><g transform="matrix(0.6666666666666666,0,0,0.6666666666666666,249.39393939393932,693.5890580428072)"><svg viewBox="0 0 396 45" data-background-color="#ffffff" preserveAspectRatio="xMidYMid meet" height="170" width="1500" xmlns="http://www.w3.org/2000/svg" xmlns:xlink="http://www.w3.org/1999/xlink"><g id="tight-bounds" transform="matrix(1,0,0,1,0.24000000000003752,-0.10153775229110806)"><svg viewBox="0 0 395.5199999999999 45.20307550458219" height="45.20307550458219" width="395.5199999999999"><g><svg viewBox="0 0 580.2133541640859 66.31125621219171" height="45.20307550458219" width="395.5199999999999"><g><rect width="5.950266187494388" height="66.31125621219171" x="163.1664749203235" y="0" fill="#152232" opacity="1" stroke-width="0" stroke="transparent" fill-opacity="1" class="rect-qz-0" data-fill-palette-color="primary" rx="1%" id="qz-0" data-palette-color="#152232"></rect></g><g transform="matrix(1,0,0,1,184.69335416408592,0.1649533736621649)"><svg viewBox="0 0 395.52 65.98134946486738" height="65.98134946486738" width="395.52"><g id="textblocktransform"><svg viewBox="0 0 395.52 65.98134946486738" height="65.98134946486738" width="395.52" id="textblock"><g><svg viewBox="0 0 395.52 65.98134946486738" height="65.98134946486738" width="395.52"><g transform="matrix(1,0,0,1,0,0)"><svg width="395.52" viewBox="2 -35.35 214.88 35.85" height="65.98134946486738" data-palette-color="#152232"><path d="M7.85 0L2.2 0Q2 0 2-0.25L2-0.25 2.1-34.6Q2.1-34.8 2.3-34.8L2.3-34.8 8.4-34.8Q8.6-34.8 8.75-34.6L8.75-34.6 13.3-28 17.85-34.6Q18-34.8 18.2-34.8L18.2-34.8 24.35-34.8Q24.55-34.8 24.55-34.6L24.55-34.6 24.65-0.25Q24.65 0 24.45 0L24.45 0 18.8 0Q18.6 0 18.6-0.25L18.6-0.25 18.55-25.75 13.3-18.15 8.1-25.75 8.05-0.25Q8.05 0 7.85 0L7.85 0ZM45.2 0L29.05 0Q28.85 0 28.85-0.25L28.85-0.25 28.9-34.6Q28.9-34.8 29.1-34.8L29.1-34.8 45.15-34.8Q45.35-34.8 45.35-34.55L45.35-34.55 45.35-28.95Q45.35-28.75 45.15-28.75L45.15-28.75 34.9-28.75 34.9-20.95 45.15-20.95Q45.35-20.95 45.35-20.75L45.35-20.75 45.4-15.1Q45.4-14.9 45.2-14.9L45.2-14.9 34.9-14.9 34.9-6.15 45.2-6.15Q45.4-6.15 45.4-5.9L45.4-5.9 45.4-0.2Q45.4 0 45.2 0L45.2 0ZM55.7 0L50.05 0Q49.84 0 49.84-0.25L49.84-0.25 49.95-34.6Q49.95-34.8 50.14-34.8L50.14-34.8 60.24-34.8Q62.95-34.8 65.22-33.48 67.5-32.15 68.84-29.93 70.19-27.7 70.19-24.9L70.19-24.9Q70.19-23.05 69.64-21.58 69.09-20.1 68.34-19.07 67.59-18.05 67-17.55L67-17.55Q69.69-14.55 69.69-10.5L69.69-10.5 69.75-0.25Q69.75 0 69.5 0L69.5 0 63.84 0Q63.64 0 63.64-0.15L63.64-0.15 63.64-10.5Q63.64-12.3 62.37-13.63 61.09-14.95 59.24-14.95L59.24-14.95 55.95-14.95 55.89-0.25Q55.89 0 55.7 0L55.7 0ZM55.95-28.8L55.95-20.95 60.24-20.95Q61.8-20.95 62.99-22.1 64.19-23.25 64.19-24.9L64.19-24.9Q64.19-26.5 63.02-27.65 61.84-28.8 60.24-28.8L60.24-28.8 55.95-28.8ZM82.89 0.5L82.89 0.5Q80.14 0.5 77.92-0.88 75.69-2.25 74.39-4.55 73.09-6.85 73.09-9.7L73.09-9.7 73.14-25.3Q73.14-28.05 74.42-30.33 75.69-32.6 77.92-33.98 80.14-35.35 82.89-35.35L82.89-35.35Q85.64-35.35 87.84-34 90.04-32.65 91.34-30.38 92.64-28.1 92.64-25.3L92.64-25.3 92.64-23Q92.64-22.8 92.44-22.8L92.44-22.8 86.84-22.8Q86.64-22.8 86.64-23L86.64-23 86.64-25.3Q86.64-26.95 85.57-28.15 84.49-29.35 82.89-29.35L82.89-29.35Q81.09-29.35 80.14-28.13 79.19-26.9 79.19-25.3L79.19-25.3 79.19-9.7Q79.19-7.85 80.27-6.7 81.34-5.55 82.89-5.55L82.89-5.55Q84.49-5.55 85.57-6.83 86.64-8.1 86.64-9.7L86.64-9.7 86.64-12Q86.64-12.2 86.84-12.2L86.84-12.2 92.49-12.2Q92.69-12.2 92.69-12L92.69-12 92.69-9.7Q92.69-6.85 91.37-4.55 90.04-2.25 87.84-0.88 85.64 0.5 82.89 0.5ZM93.74-0.25L93.74-0.25 99.94-34.6Q99.99-34.8 100.19-34.8L100.19-34.8 107.44-34.8Q107.64-34.8 107.69-34.6L107.69-34.6 113.64-0.25Q113.69 0 113.44 0L113.44 0 107.89 0Q107.69 0 107.64-0.25L107.64-0.25 107.09-3.9 100.29-3.9 99.74-0.25Q99.69 0 99.49 0L99.49 0 93.94 0Q93.74 0 93.74-0.25ZM103.54-23.3L101.29-9.25 106.09-9.25 104.04-23.3 103.74-25.15 103.54-23.3ZM125.99-0.05L117.04 0Q116.79 0 116.79-0.25L116.79-0.25 116.89-34.6Q116.89-34.8 117.09-34.8L117.09-34.8 126.44-34.85Q129.19-34.9 131.46-33.55 133.74-32.2 135.09-29.93 136.44-27.65 136.44-24.9L136.44-24.9 136.44-10.55Q136.44-7.65 135.04-5.28 133.64-2.9 131.29-1.5 128.94-0.1 125.99-0.05L125.99-0.05ZM122.94-28.8L122.89-6.15 125.99-6.15Q127.84-6.15 129.11-7.45 130.39-8.75 130.39-10.55L130.39-10.55 130.39-24.95Q130.39-26.55 129.21-27.73 128.04-28.9 126.44-28.85L126.44-28.85 122.94-28.8ZM146.28 0L140.63 0Q140.38 0 140.38-0.25L140.38-0.25 140.44-34.6Q140.44-34.8 140.63-34.8L140.63-34.8 146.23-34.8Q146.44-34.8 146.44-34.6L146.44-34.6 146.48-0.25Q146.48 0 146.28 0L146.28 0ZM156.33 0L151.33 0Q150.93 0 150.93-0.35L150.93-0.35 150.88-34.4Q150.88-34.8 151.28-34.8L151.28-34.8 155.78-34.8 164.23-15.1 163.98-34.4Q163.98-34.8 164.43-34.8L164.43-34.8 169.38-34.8Q169.68-34.8 169.68-34.4L169.68-34.4 169.73-0.3Q169.73 0 169.48 0L169.48 0 165.08 0 156.43-18.4 156.78-0.4Q156.78 0 156.33 0L156.33 0ZM179.93 0L174.28 0Q174.08 0 174.08-0.25L174.08-0.25 174.13-34.6Q174.13-34.8 174.38-34.8L174.38-34.8 179.93-34.8Q180.18-34.8 180.18-34.6L180.18-34.6 180.13-21 187.63-21 187.63-34.6Q187.63-34.8 187.83-34.8L187.83-34.8 193.38-34.8Q193.63-34.8 193.63-34.6L193.63-34.6 193.73-0.25Q193.73 0 193.48 0L193.48 0 187.88 0Q187.63 0 187.63-0.25L187.63-0.25 187.63-14.95 180.13-14.95 180.13-0.25Q180.13 0 179.93 0L179.93 0ZM207.08 0.5L207.08 0.5Q204.38 0.5 202.15-0.88 199.93-2.25 198.58-4.53 197.23-6.8 197.23-9.55L197.23-9.55 197.28-25.4Q197.28-28.15 198.6-30.4 199.93-32.65 202.18-34 204.43-35.35 207.08-35.35L207.08-35.35Q209.78-35.35 211.98-34 214.18-32.65 215.5-30.4 216.83-28.15 216.83-25.4L216.83-25.4 216.88-9.55Q216.88-6.8 215.55-4.53 214.23-2.25 212-0.88 209.78 0.5 207.08 0.5ZM207.08-5.55L207.08-5.55Q208.58-5.55 209.7-6.78 210.83-8 210.83-9.55L210.83-9.55 210.78-25.4Q210.78-27.05 209.73-28.2 208.68-29.35 207.08-29.35L207.08-29.35Q205.53-29.35 204.43-28.23 203.33-27.1 203.33-25.4L203.33-25.4 203.33-9.55Q203.33-7.9 204.43-6.73 205.53-5.55 207.08-5.55Z" opacity="1" transform="matrix(1,0,0,1,0,0)" fill="#152232" class="wordmark-text-0" data-fill-palette-color="primary" id="text-0"></path></svg></g></svg></g></svg></g></svg></g><g transform="matrix(1,0,0,1,0,0.1649533736621649)"><svg viewBox="0 0 147.58986186405548 65.98134946486738" height="65.98134946486738" width="147.58986186405548"><g><svg xmlns="http://www.w3.org/2000/svg" xmlns:xlink="http://www.w3.org/1999/xlink" version="1.0" x="0" y="0" viewBox="5 32.65300000000001 90.02058228862379 40.24449527900199" enable-background="new 0 0 100 100" xml:space="preserve" height="65.98134946486738" width="147.58986186405548" class="icon-icon-0" data-fill-palette-color="accent" id="icon-0"><g fill="#5ebc67" data-fill-palette-color="accent"><path fill="#5ebc67" d="M79.831 68.229c-1.856-2.528-4.197-4.547-6.745-6.347-1.355-0.954-2.818-1.743-4.122-2.777-1.387-1.101-2.801-2.17-4.228-3.216-3.878-2.849-7.881-5.52-11.81-8.298-1.639-1.16-2.377-2.861-2.487-4.833-0.047-0.854 0.358-1.18 1.245-1.098 0.8 0.075 1.592 0.199 2.359 0.443 1.374 0.439 2.775 0.727 4.225 0.736 0.71 0.004 1.387-0.165 1.971-0.547 1.36-0.883 2.504-2.001 3.421-3.343 0.021-0.028-0.018-0.097-0.042-0.201-0.955 0-1.923 0.015-2.89-0.008-0.341-0.008-0.562 0.118-0.789 0.354-0.628 0.655-1.415 1.052-2.281 1.284-1.757 0.468-3.396-0.014-5.188-0.659 1.573-0.155 3.113 0.316 4.447-1.005-1.141 0-2.099-0.036-3.055 0.009-0.949 0.046-1.727 0.779-2.732 0.698 1.096 0.722 2.148 1.433 3.104 2.31-0.525-0.064-1.012-0.284-1.512-0.312-0.753-0.044-1.198-0.495-1.646-0.99-0.11-0.125-0.206-0.26-0.315-0.385-0.95-1.081-1.79-2.261-2.91-3.186-0.203-0.167-0.373-0.441-0.757-0.253 1.011 1.257 1.712 2.691 2.523 4.06-0.036 0.048-0.072 0.096-0.107 0.142-0.983-0.067-1.759-0.45-2.381-1.14-0.142-0.158-0.278-0.333-0.405-0.525-0.428-0.644-0.781-1.35-1.252-1.938-0.657-0.823-1.261-1.68-1.884-2.524-0.212-0.287-0.483-0.44-0.8-0.555-0.984-0.359-1.974-0.706-2.949-1.087-1.347-0.528-2.72-0.375-4.094-0.192-0.948 0.126-1.432 0.768-1.328 1.838 0.08 0.827 0.145 1.668 0.015 2.488-0.135 0.854 0.009 1.665 0.254 2.453 0.449 1.447 0.96 2.875 1.461 4.307 0.567 1.62 1.179 3.238 2.154 4.649 2.021 2.925 4.33 5.624 7.04 7.932 3.181 2.712 6.453 5.316 9.66 7.999 1.868 1.564 3.724 3.151 5.282 5.041 0.695 0.841 1.312 1.719 1.176 2.914 0.264 0.02 0.482 0.049 0.701 0.051 1.773 0.026 3.547 0.05 5.32 0.069 0.797 0.009 0.841-0.057 0.737-0.854-0.044-0.335-0.169-0.638-0.313-0.938-0.276-0.578-0.651-1.089-1.051-1.588-1.42-1.766-3.211-3.131-4.963-4.527-3.829-3.054-7.713-6.038-11.554-9.077-1.454-1.148-2.969-2.231-4.256-3.577-1.34-1.402-2.589-2.883-3.822-4.382-0.966-1.173-1.628-2.455-2.069-3.916-0.446-1.478-0.25-2.844 0.287-4.205 0.361-0.912 1.044-1.201 1.994-0.916 0.792 0.24 1.582 0.491 2.363 0.762 0.798 0.277 1.584 0.589 2.376 0.885-0.238 0.11-0.452 0.109-0.667 0.11-1.404 0.009-1.683 0.248-2.115 1.583-0.216 0.667-0.066 1.253 0.205 1.836 0.222 0.478 0.473 0.94 0.736 1.393 1.135 1.954 2.487 3.759 4.263 5.153 5.768 4.527 11.819 8.676 17.646 13.125 1.673 1.278 3.352 2.546 4.804 4.082 1.371 1.45 2.688 2.941 2.78 5.204 2.048 0 4.042 0 6.034 0.001 0.771 0 0.81-0.046 0.684-0.8C81.346 70.542 80.65 69.349 79.831 68.229z" data-fill-palette-color="accent"></path><path fill="#5ebc67" d="M27.882 67.337c-0.868-1.695-1.802-3.356-2.637-5.066-1.553-3.185-2.857-6.423-3.188-10.032-0.317-3.458 0.062-6.784 1.013-10.085 0.265-0.919 0.608-1.811 0.965-2.693-0.429-0.228-0.681 0.027-0.957 0.199-1.291 0.807-2.471 1.781-3.762 2.578-1.325 0.819-2.383 1.859-3.213 3.156-0.5 0.779-1.196 1.421-1.587 2.276 0.328 0.019 0.531-0.187 0.731-0.382 0.026-0.025 0.052-0.049 0.079-0.075 0.002-0.002 0.005-0.003 0.007-0.006 0.032-0.029 0.065-0.056 0.097-0.084 1.523-1.199 2.894-2.573 4.359-3.837 0.212-0.183 0.391-0.445 0.702-0.469 0.167 0.312-0.071 0.403-0.195 0.516-1.853 1.672-3.472 3.564-5.132 5.42-1.143 1.279-2.292 2.567-3.66 3.609-1.002 0.764-1.843 1.638-2.572 2.66-1.256 1.759-2.572 3.477-3.879 5.234 0.116 0.021 0.185 0.057 0.217 0.035 0.186-0.119 0.364-0.25 0.541-0.382 2.885-2.15 5.309-4.757 7.506-7.586 1.034-1.33 2.057-2.668 3.085-4.002 0.05 0.08 0.1 0.16 0.15 0.24-0.786 1.263-1.571 2.529-2.358 3.791-2.244 3.599-4.719 7.019-7.659 10.093C6.036 62.964 5.52 63.464 5 63.96v4.642c0.294-0.461 0.581-0.926 0.939-1.339 1.563-1.798 3.013-3.681 4.261-5.712 2.3-3.738 4.321-7.63 6.284-11.551 0.727-1.454 1.519-2.869 2.468-4.192 0.056 0.04 0.112 0.079 0.168 0.119-0.278 0.572-0.585 1.132-0.827 1.717-1.367 3.314-2.791 6.604-3.949 10.002-0.633 1.855-1.348 3.68-2.182 5.453-0.227 0.485-0.367 0.979-0.442 1.5-0.064 0.438-0.121 0.876-0.191 1.313-0.36 2.238-1.165 4.258-2.872 5.833-0.028 0.025-0.009 0.103-0.016 0.232 2.052 0 4.098-0.01 6.145 0.01 0.356 0.002 0.558-0.168 0.76-0.409 0.832-0.998 1.198-2.165 1.267-3.441 0.078-1.416-0.065-2.823-0.238-4.225-0.223-1.812-0.434-3.588 0.042-5.423 0.566-2.189 0.693-4.478 1.371-6.65 0.729-2.342 1.339-4.728 2.342-6.978 0.444-0.995 0.936-1.968 1.597-2.872 0.226 0.371-0.021 0.637-0.126 0.898-0.944 2.313-1.51 4.731-1.947 7.179-0.44 2.467-0.319 4.971-0.379 7.461-0.005 0.164 0.025 0.333 0.065 0.492 0.294 1.18 0.582 2.36 0.897 3.534 0.538 1.998 1.313 3.925 1.798 5.938 0.369 1.529 0.609 3.061-0.488 4.437-0.016 0.021 0.029 0.089 0.064 0.188 1.921 0 3.86-0.002 5.798 0 0.842 0 0.985-0.112 1.191-0.912 0.091-0.354 0.11-0.703 0.061-1.068C28.726 69.135 28.336 68.221 27.882 67.337z" data-fill-palette-color="accent"></path><path fill="#5ebc67" d="M14.505 47.684c0.001 0 0.002 0 0.004-0.002 0.002-0.004 0.005-0.008 0.006-0.013-0.008-0.001-0.016-0.001-0.024-0.001C14.497 47.674 14.5 47.68 14.505 47.684z" data-fill-palette-color="accent"></path><path fill="#5ebc67" d="M14.489 47.78c0.012-0.003 0.021-0.008 0.027-0.015 0.004-0.005 0.005-0.011 0.006-0.016 0.001-0.002 0.003-0.004 0.004-0.008 0-0.008 0-0.015-0.004-0.024 0-0.001 0-0.001 0-0.002-0.003-0.01-0.009-0.02-0.017-0.031-0.037 0.019-0.074 0.039-0.111 0.059C14.426 47.757 14.463 47.789 14.489 47.78z" data-fill-palette-color="accent"></path><path fill="#5ebc67" d="M94.996 72.358c-0.134-0.822-0.309-1.646-0.669-2.385-0.715-1.457-0.714-2.984-0.605-4.536 0.098-1.437 0.137-2.876 0.106-4.316-0.011-0.475-0.161-0.83-0.455-1.193-1.201-1.482-2.36-2.999-3.562-4.482-0.549-0.676-1.029-1.415-1.674-2.03-0.17 0.218-0.098 0.416-0.115 0.597-0.113 1.188-0.621 1.615-1.799 1.517-0.701-0.059-1.341-0.321-1.963-0.614-1.42-0.674-2.814-1.403-4.243-2.053-2.938-1.337-5.987-2.395-9.04-3.432-1.293-0.439-2.254-1.133-2.639-2.489-0.081-0.28-0.242-0.483-0.496-0.633-0.201-0.118-0.448-0.202-0.509-0.342 1.134-2.403 2.229-4.722 3.376-7.15-1.094 0-2.034 0.027-2.971-0.011-0.449-0.02-0.688 0.126-0.904 0.52-0.892 1.617-1.821 3.212-2.735 4.815-0.429 0.754-0.427 0.756-1.248 0.6-0.733-0.14-1.468-0.263-2.195-0.432-0.467-0.11-0.931-0.108-1.401-0.118-0.447-0.011-0.789 0.171-1.095 0.546 0.602 0.529 1.265 0.921 1.912 1.32 1.688 1.037 3.335 2.132 5.195 2.886 1.421 0.575 2.883 1.149 3.908 2.407 1.493 1.832 3.358 3.294 4.998 4.98 0.623 0.639 1.344 1.131 2.112 1.586 3.688 2.178 6.92 4.863 9.288 8.484 1.23 1.878 2.371 3.801 2.609 6.104 0.037 0.342 0.277 0.286 0.488 0.289 1.965 0.034 3.931 0.049 5.897 0.104C95.032 72.908 95.058 72.736 94.996 72.358z" data-fill-palette-color="accent"></path><path fill="#5ebc67" d="M54.489 70.436c-0.393-0.672-0.874-1.279-1.397-1.853-1.945-2.135-4.142-4.001-6.318-5.89-2.931-2.541-5.87-5.068-8.34-8.087-1.545-1.89-3-3.821-3.961-6.093-1.001-2.362-1.873-4.776-2.836-7.153-0.156-0.385-0.215-0.795-0.241-1.214-0.062-0.994-0.153-1.985-0.246-2.977-0.134-1.453 0.144-2.857 0.993-4.1 0.071-0.104 0.208-0.199 0.026-0.416-0.574 0.348-1.144 0.726-1.743 1.05-1.08 0.583-1.652 1.503-1.872 2.677-0.03 0.165-0.051 0.329-0.066 0.493-0.128 1.469 0.049 2.929 0.097 4.393 0.043 1.358 0.395 2.611 0.89 3.852 0.685 1.716 1.314 3.455 2.026 5.161 0.66 1.579 1.407 3.119 2.393 4.533 1.893 2.716 4.119 5.139 6.471 7.454 1.936 1.902 3.942 3.736 5.754 5.764 0.666 0.743 1.309 1.509 1.763 2.401 0.289 0.562 0.55 1.152 0.174 2.003 2.081 0 4.018 0 5.953 0.001 0.95 0 1.15-0.259 0.866-1.177C54.785 70.973 54.643 70.695 54.489 70.436z" data-fill-palette-color="accent"></path><path fill="#5ebc67" d="M40.693 68.826c-1.387-1.98-3.098-3.687-4.675-5.506-1.994-2.303-3.959-4.629-5.462-7.297-1.274-2.268-2.245-4.674-3.066-7.134-0.411-1.227-0.876-2.445-1.053-3.739-0.343-2.495-0.056-4.972 0.176-7.454 0.037-0.406 0.385-0.716 0.32-1.14-0.166-0.012-0.247 0.06-0.334 0.128-1.083 0.876-1.681 2.035-1.933 3.377-0.179 0.951-0.301 1.913-0.464 2.867-0.289 1.676-0.39 3.368-0.132 5.045 0.503 3.297 1.506 6.44 2.979 9.44 1.459 2.971 3.378 5.637 5.292 8.312 0.851 1.191 1.749 2.353 2.385 3.682 0.416 0.866 0.657 1.756 0.115 2.868 2.151 0 4.144 0.002 6.136-0.001 0.671-0.001 0.8-0.138 0.822-0.815 0.013-0.397-0.084-0.771-0.237-1.13C41.331 69.796 41.027 69.302 40.693 68.826z" data-fill-palette-color="accent"></path><path fill="#5ebc67" d="M71.833 47.306c0.773 0.395 1.508 0.218 2.203-0.185 0.762-0.442 1.548-0.875 1.81-1.83 0.466-1.7 0.935-3.4 1.426-5.094 0.089-0.305 0.037-0.512-0.14-0.758-0.295-0.412-0.622-0.656-1.172-0.582-0.407 0.056-0.831 0.044-1.242-0.001-0.492-0.055-0.721 0.117-0.894 0.597-0.66 1.84-1.381 3.659-2.062 5.49-0.255 0.684-0.573 1.315-1.215 1.831C70.98 47.077 71.441 47.107 71.833 47.306z" data-fill-palette-color="accent"></path><path fill="#5ebc67" d="M75.627 48.175c-0.339-0.013-0.673-0.048-1.143 0.084 1.777 0.556 3.368 1.229 4.993 1.81 0.727 0.26 1.475 0.461 2.268 0.428 1.087-0.045 1.682-0.532 1.908-1.598 0.04-0.19 0.04-0.388 0.092-0.574 0.079-0.294 0.012-0.53-0.178-0.767-1.093-1.355-2.172-2.72-3.32-4.162-0.167 0.28-0.178 0.5-0.217 0.715-0.146 0.816-0.274 1.636-0.566 2.416-0.392 1.042-1.163 1.586-2.26 1.651C76.681 48.211 76.152 48.198 75.627 48.175z" data-fill-palette-color="accent"></path><path fill="#5ebc67" d="M20.285 39.799c0.846-0.351 1.47-0.783 2.139-1.166C21.312 38.195 20.846 38.919 20.285 39.799z" data-fill-palette-color="accent"></path></g></svg></g></svg></g></svg></g><defs></defs></svg><rect width="395.5199999999999" height="45.20307550458219" fill="none" stroke="none" visibility="hidden"></rect></g></svg></g></svg>